<?xml version="1.0" encoding="UTF-8" standalone="no"?>
<svg
   width="16"
   height="16"
   viewBox="0 0 16 16"
   version="1.1"
   id="svg3"
   sodipodi:docname="io.github.nico359.simplesync-symbolic.svg"
   inkscape:version="1.4.3 (0d15f75042, 2025-12-25)"
   xmlns:inkscape="http://www.inkscape.org/namespaces/inkscape"
   xmlns:sodipodi="http://sodipodi.sourceforge.net/DTD/sodipodi-0.dtd"
   xmlns="http://www.w3.org/2000/svg"
   xmlns:svg="http://www.w3.org/2000/svg">
  <defs
     id="defs3" />
  <sodipodi:namedview
     id="namedview3"
     pagecolor="#ffffff"
     bordercolor="#000000"
     borderopacity="0.25"
     inkscape:showpageshadow="2"
     inkscape:pageopacity="0.0"
     inkscape:pagecheckerboard="0"
     inkscape:deskcolor="#d1d1d1"
     inkscape:zoom="25.375"
     inkscape:cx="8"
     inkscape:cy="8"
     inkscape:window-width="1280"
     inkscape:window-height="659"
     inkscape:window-x="0"
     inkscape:window-y="0"
     inkscape:window-maximized="1"
     inkscape:current-layer="svg3" />
  <!-- Cloud shape -->
  <path
     d="m 15.059939,10.03633 c 0,1.24869 -0.624345,2.247642 -1.873035,2.497379 0,0 -0.624344,1.498428 -2.247641,1.873035 -1.4984268,0.374606 -2.1227713,-0.624346 -2.1227713,-0.624346 0,0 -0.8740826,1.24869 -2.7471168,0.874083 -1.6232964,-0.374606 -1.8730342,-1.623295 -1.8730342,-1.623295 0,0 -1.6232963,0.374606 -2.4973789,-0.874083 -0.99895164,-1.24869 -0.3746069,-2.4973798 -0.3746069,-2.4973798 0,0 -1.24868957,-0.8740828 -0.87408272,-2.4973791 C 0.70001016,5.5410478 2.3233065,5.29131 2.3233065,5.29131 c 0,0 0,-1.6232963 1.4984274,-2.497379 1.6232963,-0.9989516 2.8719857,0 2.8719857,0 0,0 0.8740826,-1.7481652 3.1217239,-1.4984273 1.8730335,0.2497378 2.4973775,2.247641 2.4973775,2.247641 0,0 1.873035,0 2.747118,1.8730342 0.998951,1.8730343 0,3.6211995 0,3.6211995 z"
     fill="#2e3436"
     id="path1"
     style="stroke-width:1.24869" />
  <!-- Down arrow (left) -->
  <path
     d="M 4.8339701,5.8505669 V 8.3479458 H 2.9609359 L 5.4583149,11.46967 7.9556938,8.3479458 H 6.0826596 V 5.8505669 Z"
     fill="#ffffff"
     id="path2"
     style="stroke-width:1.24869" />
  <!-- Up arrow (right) -->
  <path
     d="M 10.27462,10.924143 V 8.4267635 H 8.4015857 l 2.4973783,-3.1217237 2.497379,3.1217237 h -1.873035 v 2.4973795 z"
     fill="#ffffff"
     id="path3"
     style="stroke-width:1.24869" />
</svg>
