<?xml version="1.0" encoding="UTF-8" standalone="no"?>
<svg
   width="128"
   height="128"
   viewBox="0 0 128 128"
   version="1.1"
   id="svg4"
   sodipodi:docname="io.github.nico359.simplesync.svg"
   inkscape:version="1.4.3 (0d15f75042, 2025-12-25)"
   xmlns:inkscape="http://www.inkscape.org/namespaces/inkscape"
   xmlns:sodipodi="http://sodipodi.sourceforge.net/DTD/sodipodi-0.dtd"
   xmlns="http://www.w3.org/2000/svg"
   xmlns:svg="http://www.w3.org/2000/svg">
  <sodipodi:namedview
     id="namedview4"
     pagecolor="#ffffff"
     bordercolor="#000000"
     borderopacity="0.25"
     inkscape:showpageshadow="2"
     inkscape:pageopacity="0.0"
     inkscape:pagecheckerboard="0"
     inkscape:deskcolor="#d1d1d1"
     inkscape:zoom="3.171875"
     inkscape:cx="64"
     inkscape:cy="64"
     inkscape:window-width="1280"
     inkscape:window-height="659"
     inkscape:window-x="0"
     inkscape:window-y="0"
     inkscape:window-maximized="1"
     inkscape:current-layer="svg4" />
  <!-- Cloud shape -->
  <path
     d="m 122.35025,81.213239 c 0,10.206531 -7.6549,17.861429 -17.86143,20.413061 0,0 -2.55164,10.20653 -15.3098,12.75816 -12.758163,2.55164 -17.861428,-5.10326 -17.861428,-5.10326 0,0 -7.654898,10.20652 -22.964695,7.6549 -12.758162,-2.55164 -15.309795,-12.75817 -15.309795,-12.75817 0,0 -12.758163,2.55163 -20.413062,-7.654895 -7.6548983,-10.206531 -2.551632,-20.413061 -2.551632,-20.413061 0,0 -10.20653208,-7.654898 -7.6548992,-20.413061 C 4.9751417,42.938749 17.733306,40.387116 17.733306,40.387116 c 0,0 0,-12.758163 12.758163,-20.413061 12.758164,-7.654898 22.964694,0 22.964694,0 0,0 7.654898,-12.7581629 25.516327,-10.206531 15.309796,2.551633 20.413064,17.861429 20.413064,17.861429 0,0 15.309796,0 22.964696,15.309796 7.6549,15.309797 0,28.067959 0,28.067959 z"
     fill="#3584e4"
     id="path1"
     style="stroke-width:1.27582" />
  <!-- Cloud highlight -->
  <path
     d="m 122.35025,81.213239 c 0,10.206531 -7.6549,17.861429 -17.86143,20.413061 0,0 -2.55164,10.20653 -15.3098,12.75816 -12.758163,2.55164 -17.861428,-5.10326 -17.861428,-5.10326 0,0 -7.654898,10.20652 -22.964695,7.6549 -12.758162,-2.55164 -15.309795,-12.75817 -15.309795,-12.75817 0,0 -12.758163,2.55163 -20.413062,-7.654895 -7.6548983,-10.206531 -2.551632,-20.413061 -2.551632,-20.413061 0,0 -10.20653208,-7.654898 -7.6548992,-20.413061 C 4.9751417,42.938749 17.733306,40.387116 17.733306,40.387116 c 0,0 0,-12.758163 12.758163,-20.413061 12.758164,-7.654898 22.964694,0 22.964694,0 0,0 7.654898,-12.7581629 25.516327,-10.206531 15.309796,2.551633 20.413064,17.861429 20.413064,17.861429 0,0 15.309796,0 22.964696,15.309796 7.6549,15.309797 0,28.067959 0,28.067959 z"
     fill="url(#highlight)"
     id="path2"
     style="fill:url(#highlight);stroke-width:1.27582" />
  <defs
     id="defs3">
    <linearGradient
       id="highlight"
       x1="12.774513"
       y1="16.849692"
       x2="12.774513"
       y2="107.42422"
       gradientTransform="matrix(1.3661506,0,0,1.1914554,-15.43792,-10.645538)"
       gradientUnits="userSpaceOnUse">
      <stop
         offset="0"
         stop-color="white"
         stop-opacity="0.3"
         id="stop2" />
      <stop
         offset="1"
         stop-color="white"
         stop-opacity="0"
         id="stop3" />
    </linearGradient>
  </defs>
  <!-- Down arrow (left) -->
  <path
     d="m 36.45585,46.869327 v 20.76923 H 22.609696 l 20.769232,24.23077 20.76923,-24.23077 H 50.302004 v -20.76923 z"
     fill="#ffffff"
     id="path3"
     style="stroke-width:1.73077" />
  <!-- Up arrow (right) -->
  <path
     d="M 81.262635,88.371881 V 67.60265 H 67.41648 L 88.185711,43.371881 108.95494,67.60265 H 95.108789 v 20.769231 z"
     fill="#ffffff"
     id="path4"
     style="stroke-width:1.73077" />
</svg>
